<?xml version="1.0" standalone="no"?>
<!DOCTYPE svg PUBLIC "-//W3C//DTD SVG 20010904//EN"
 "http://www.w3.org/TR/2001/REC-SVG-20010904/DTD/svg10.dtd">
<svg version="1.0" xmlns="http://www.w3.org/2000/svg"
 width="512.000000pt" height="512.000000pt" viewBox="0 0 512.000000 512.000000"
 preserveAspectRatio="xMidYMid meet">

<g transform="translate(0.000000,512.000000) scale(0.100000,-0.100000)"
fill="#000000" stroke="none">
<path d="M3470 5004 c-96 -26 -179 -85 -245 -176 -19 -27 -22 -27 -60 -17 -69
20 -194 6 -270 -29 -87 -41 -166 -121 -208 -209 -30 -63 -32 -76 -32 -173 0
-97 2 -110 32 -173 18 -37 55 -91 83 -121 l50 -53 0 -146 0 -147 -27 0 c-81 0
-161 -52 -194 -125 -15 -31 -19 -66 -19 -160 0 -106 3 -126 23 -165 34 -67 81
-99 167 -114 l72 -12 17 -49 c39 -109 117 -225 196 -289 44 -37 45 -38 45 -98
0 -103 6 -99 -341 -248 -407 -176 -410 -179 -417 -412 l-4 -137 -52 39 c-101
76 -262 143 -381 158 l-60 7 -5 80 c-6 92 -27 135 -80 168 -34 21 -45 22 -285
22 -234 0 -252 -1 -285 -21 -61 -35 -80 -75 -80 -165 0 -74 -1 -79 -23 -83
-188 -36 -281 -68 -385 -135 -78 -51 -184 -152 -237 -226 -42 -58 -116 -201
-128 -244 -5 -20 -11 -21 -147 -21 -136 0 -142 -1 -165 -25 -14 -13 -25 -36
-25 -50 0 -33 42 -75 75 -75 24 0 25 -1 25 -72 0 -55 5 -81 20 -105 20 -34 66
-63 100 -63 19 0 20 -6 20 -136 0 -150 9 -185 62 -229 16 -13 47 -29 68 -35
l40 -11 0 -79 0 -80 -155 0 c-174 0 -201 -7 -235 -63 -17 -28 -20 -51 -20
-168 0 -125 2 -139 23 -170 12 -18 34 -39 47 -46 20 -10 466 -13 2128 -13
2089 0 2102 0 2122 20 30 30 27 83 -6 109 l-27 21 -2068 0 -2069 0 0 80 0 80
2410 0 2410 0 0 -80 0 -80 -179 0 c-165 0 -180 -2 -205 -21 -33 -26 -36 -79
-6 -109 19 -19 33 -20 233 -20 233 0 246 3 284 59 21 31 23 45 23 170 0 114
-3 141 -18 166 -18 29 -18 31 0 77 23 61 23 95 0 133 -18 29 -18 31 0 77 23
62 23 99 -2 130 -19 25 -19 25 0 77 25 65 25 102 0 134 -20 25 -20 27 -4 59
10 18 18 56 18 85 1 45 -3 57 -27 80 -26 27 -32 28 -147 31 l-120 4 0 114 c0
109 -1 116 -25 139 -31 32 -69 32 -100 0 -24 -23 -25 -30 -25 -140 l0 -115
-431 0 -431 0 -34 -34 c-39 -39 -44 -76 -19 -147 15 -40 14 -47 -1 -81 -19
-42 -15 -98 9 -146 13 -27 12 -32 -4 -53 -24 -31 -24 -92 0 -145 18 -39 18
-41 0 -63 -21 -25 -25 -84 -9 -125 l10 -26 -250 0 -250 0 2 783 3 782 22 40
c12 22 129 146 260 276 216 214 242 238 284 248 26 6 53 13 61 16 12 5 17 -4
22 -35 4 -23 15 -58 25 -78 39 -76 73 -96 386 -231 205 -89 307 -138 323 -156
20 -24 22 -36 22 -161 0 -130 1 -136 25 -159 31 -32 69 -32 100 0 24 23 25 29
25 163 0 151 -10 197 -55 256 -33 44 -72 64 -385 196 -146 62 -276 123 -289
136 -19 18 -26 36 -29 83 l-4 60 79 78 c84 82 150 181 178 269 l16 50 66 11
c73 13 101 29 147 87 l31 38 0 152 c0 150 0 153 -28 193 -33 48 -89 81 -151
89 l-46 7 0 144 0 145 45 51 c25 29 60 81 78 117 30 61 32 70 32 180 0 111 -1
118 -34 182 -67 135 -205 228 -350 236 -42 2 -96 -1 -121 -7 -42 -10 -46 -9
-60 12 -106 157 -291 229 -470 181z m196 -149 c69 -20 127 -73 163 -149 42
-86 63 -95 149 -60 145 58 296 3 358 -131 17 -34 24 -68 24 -109 0 -92 -17
-134 -83 -201 -32 -33 -63 -70 -68 -83 -5 -13 -9 -79 -9 -148 l0 -124 -615 0
-615 0 0 136 0 135 -64 62 c-77 75 -97 112 -104 193 -7 87 17 152 78 214 84
83 207 103 322 51 66 -30 87 -19 135 71 71 133 190 185 329 143z m534 -1363
c0 -154 -4 -223 -15 -267 -48 -183 -199 -332 -384 -380 -99 -25 -393 -18 -474
12 -150 56 -265 170 -325 320 -25 65 -26 77 -30 296 l-4 227 616 0 616 0 0
-208z m-1380 -18 l0 -136 -32 6 c-50 10 -58 28 -58 137 0 90 2 99 22 113 12 9
33 16 45 16 23 0 23 -1 23 -136z m1588 120 c20 -14 22 -23 22 -119 0 -100 -1
-105 -25 -121 -48 -32 -55 -17 -55 119 0 146 6 158 58 121z m-1089 -890 c47
-13 70 -27 107 -65 l48 -49 -156 -157 c-133 -135 -158 -167 -179 -218 l-24
-60 -3 -792 -3 -793 -289 0 -290 0 0 80 0 80 45 11 c55 14 110 66 124 117 6
20 11 92 11 158 l0 122 34 6 c69 13 106 76 106 184 0 45 3 52 19 52 33 0 51
11 66 40 17 33 4 84 -25 100 -10 6 -81 10 -157 10 l-138 0 -24 63 c-13 34 -41
92 -62 129 l-39 66 0 194 c0 171 2 196 19 224 16 26 54 46 262 135 355 152
397 174 436 232 20 30 35 67 39 98 4 27 8 49 10 49 3 0 31 -7 63 -16z m-1631
-486 l3 -58 -216 0 -215 0 0 60 0 60 213 -2 212 -3 3 -57z m267 -231 c145 -41
288 -134 380 -247 44 -53 115 -177 115 -199 0 -8 -272 -11 -980 -11 l-980 0
15 38 c62 148 191 285 340 360 151 76 189 81 655 78 338 -2 404 -5 455 -19z
m745 -652 l0 -45 -1225 0 -1225 0 0 45 0 45 1225 0 1225 0 0 -45z m2225 -125
l-29 -30 -467 0 c-457 0 -467 0 -493 21 -14 11 -26 25 -26 30 0 5 208 9 522 9
l522 0 -29 -30z m-2365 -188 c0 -78 -4 -122 -12 -130 -9 -9 -167 -12 -648 -12
-713 0 -680 3 -680 -69 0 -26 7 -44 21 -57 20 -18 45 -19 475 -22 l454 -3 0
-79 0 -80 -700 0 -700 0 0 79 0 79 99 4 c117 4 141 17 141 79 0 68 -7 69 -316
69 -150 0 -279 3 -288 6 -13 5 -16 26 -16 130 l0 124 1085 0 1085 0 0 -118z
m2362 -22 l-32 -30 -461 0 c-400 0 -463 2 -484 16 -13 8 -26 22 -29 30 -5 12
66 14 517 14 l522 -1 -33 -29z m0 -210 l-32 -30 -460 0 -460 0 -32 30 -33 29
525 0 525 0 -33 -29z m-4302 -140 l0 -80 -30 0 -30 0 0 80 0 80 30 0 30 0 0
-80z m1760 -1 l0 -80 -27 3 c-28 3 -28 4 -31 81 l-3 77 31 0 30 0 0 -81z
m2555 -59 c-18 -19 -31 -20 -505 -20 -474 0 -487 1 -505 20 -18 20 -17 20 505
20 522 0 523 0 505 -20z"/>
<path d="M3203 3610 c-31 -13 -43 -41 -43 -103 0 -64 19 -94 67 -103 26 -5 37
-1 57 19 22 22 26 35 26 87 0 51 -4 65 -25 85 -25 26 -45 30 -82 15z"/>
<path d="M3894 3608 c-67 -32 -56 -187 15 -203 60 -13 91 24 91 110 0 46 -4
60 -25 80 -26 27 -47 30 -81 13z"/>
<path d="M3494 3589 c-34 -17 -44 -53 -44 -160 0 -155 26 -189 146 -189 87 0
117 18 117 70 0 41 -41 80 -84 80 l-29 0 0 79 c0 60 -4 84 -17 99 -22 26 -61
35 -89 21z"/>
<path d="M3290 3160 c-12 -12 -20 -33 -20 -54 0 -43 46 -86 140 -130 60 -29
73 -31 175 -31 102 0 115 2 175 31 126 59 172 131 117 182 -33 31 -69 27 -124
-12 -60 -42 -102 -56 -167 -56 -71 0 -114 14 -172 55 -55 40 -95 44 -124 15z"/>
<path d="M1784 4341 c-26 -11 -54 -49 -54 -72 0 -9 9 -28 20 -41 18 -24 26
-26 132 -30 131 -5 163 -18 198 -81 36 -64 16 -143 -47 -184 -24 -16 -62 -19
-303 -23 l-275 -5 -53 -29 c-91 -51 -132 -124 -132 -235 0 -63 2 -71 26 -90
34 -27 57 -26 89 2 21 18 28 35 34 85 6 49 13 69 34 90 l27 27 278 5 c321 6
331 8 412 97 87 95 103 215 43 332 -32 63 -101 121 -166 141 -53 16 -235 23
-263 11z"/>
<path d="M725 3799 c-57 -16 -139 -74 -176 -123 -133 -176 -68 -430 133 -522
59 -26 73 -29 215 -32 l152 -4 32 31 c25 25 30 37 25 59 -13 54 -36 62 -175
62 -142 0 -187 9 -231 47 -106 88 -88 264 32 322 39 19 62 21 195 21 137 0
153 2 177 21 33 26 36 79 6 109 -18 18 -33 20 -187 19 -93 0 -181 -5 -198 -10z"/>
<path d="M1260 3250 c-27 -27 -26 -81 1 -106 18 -16 42 -20 158 -24 150 -6
174 -14 210 -74 41 -68 35 -142 -18 -200 -42 -46 -78 -56 -206 -56 -110 0
-117 -1 -140 -25 -32 -31 -32 -69 1 -102 25 -25 26 -25 167 -21 130 4 146 6
194 31 68 35 120 89 151 157 74 158 -9 358 -175 420 -44 16 -78 20 -188 20
-122 0 -137 -2 -155 -20z"/>
<path d="M3359 2011 c-49 -40 -18 -131 46 -131 38 0 75 37 75 75 0 62 -72 96
-121 56z"/>
<path d="M3746 2009 c-36 -28 -36 -80 0 -108 54 -42 118 -13 118 54 0 67 -64
96 -118 54z"/>
<path d="M3355 1575 c-28 -27 -30 -42 -14 -78 11 -25 47 -47 75 -47 26 0 64
47 64 80 0 65 -77 93 -125 45z"/>
<path d="M3740 1580 c-36 -36 -21 -102 27 -121 35 -13 77 4 92 37 16 37 14 52
-14 79 -30 31 -77 33 -105 5z"/>
<path d="M3383 1169 c-25 -9 -53 -47 -53 -70 0 -9 9 -28 21 -43 40 -51 129
-23 129 42 0 55 -48 89 -97 71z"/>
<path d="M3373 738 c-48 -23 -51 -103 -4 -127 78 -42 154 64 85 118 -29 23
-48 25 -81 9z"/>
</g>
</svg>
