<svg id="Line" enable-background="new 0 0 512 512" height="512" viewBox="0 0 512 512" width="512" xmlns="http://www.w3.org/2000/svg"><g><g><g><g><path d="m504 128.086c4.418 0 8-3.582 8-8v-21.257c0-1.832-.629-3.608-1.781-5.032-15.277-18.881-37.955-29.71-62.219-29.71-28.903 0-55.019 15.203-69.301 40h-18.699v-32.149c0-17.563-14.288-31.852-31.852-31.852h-.297c-6.517 0-12.582 1.967-17.634 5.339-4.352-12.413-16.187-21.339-30.069-21.339h-.297c-5.846 0-11.33 1.584-16.044 4.344-1.752-15.919-15.282-28.344-31.66-28.344h-.296c-11.628 0-21.82 6.263-27.381 15.593-5.56-4.733-12.762-7.593-20.619-7.593-17.562 0-31.851 14.289-31.851 31.852v16.148h16v-16.148c0-8.741 7.111-15.852 15.852-15.852s15.852 7.111 15.852 15.852v72.148h-1.532c-11.233 0-21.815 3.975-30.172 10.734v-50.734h-16v32h-18.698c-14.284-24.797-40.398-40-69.302-40-24.263 0-46.94 10.829-62.219 29.71-1.152 1.424-1.781 3.201-1.781 5.033v21.257c0 4.418 3.582 8 8 8h44.687l16 16-16 16h-44.687c-4.418 0-8 3.582-8 8v21.257c0 1.832.628 3.608 1.781 5.032 15.278 18.881 37.956 29.71 62.219 29.71 28.904 0 55.018-15.203 69.302-40h13.499l29.199 65.699v46.302h16v-48c0-1.119-.235-2.226-.689-3.249l-30.82-69.346 6.913-24.196c3.904-13.665 16.557-23.209 30.769-23.209h97.591c-2.547 26.893-25.257 48-52.805 48h-10.959c-2.689 0-5.198 1.351-6.679 3.596s-1.734 5.083-.674 7.555l23.353 54.491v30.358h16v-32c0-1.083-.22-2.156-.646-3.151l-19.226-44.858c23.657-.395 44.456-12.748 56.602-31.263 5.637 9.156 15.753 15.273 27.27 15.273 5.825 0 11.29-1.565 16-4.295v10.755l-12.228 30.569 14.855 5.942 12.8-32c.378-.945.572-1.954.572-2.971h18.699c14.282 24.797 40.396 40 69.301 40 24.264 0 46.941-10.829 62.219-29.71 1.152-1.424 1.781-3.2 1.781-5.032v-21.257c0-4.418-3.582-8-8-8h-44.687l-16-16 16-16h44.688zm-375.484 40c-3.037 0-5.812 1.72-7.164 4.44-10.9 21.934-32.876 35.56-57.352 35.56-18.489 0-35.83-7.862-48-21.667v-10.333h40c2.122 0 4.157-.843 5.657-2.343l24-24c3.125-3.124 3.125-8.189 0-11.313l-24-24c-1.5-1.5-3.535-2.343-5.657-2.343h-40v-10.333c12.171-13.804 29.511-21.667 48-21.667 24.475 0 46.451 13.626 57.352 35.561 1.352 2.72 4.127 4.439 7.164 4.439h23.484v26.878l-6.035 21.122h-17.449zm135.484-56v-24h-16v24h-32v-80.148c0-8.741 7.111-15.852 15.852-15.852h.296c8.741 0 15.852 7.111 15.852 15.852v40.148h16v-16.148c0-8.741 7.111-15.852 15.852-15.852h.297c8.74 0 15.852 7.111 15.852 15.852v56.148zm64 48c-8.822 0-16-7.178-16-16v-72.148c0-8.741 7.111-15.852 15.852-15.852h.297c8.74 0 15.852 7.111 15.852 15.852v72.148c-.001 8.822-7.178 16-16.001 16zm122.343-45.657-24 24c-3.124 3.124-3.124 8.189 0 11.313l24 24c1.501 1.5 3.535 2.343 5.657 2.343h40v10.333c-12.171 13.804-29.511 21.667-48 21.667-24.476 0-46.451-13.626-57.352-35.56-1.352-2.72-4.127-4.44-7.164-4.44h-23.484v-48h23.484c3.037 0 5.812-1.72 7.164-4.44 10.9-21.934 32.876-35.56 57.352-35.56 18.489 0 35.829 7.862 48 21.667v10.333h-40c-2.122.001-4.156.844-5.657 2.344z"/></g><g><path d="m340.228 235.057-14.855-5.942-12.8 32c-.378.944-.572 1.953-.572 2.971v32h16v-30.459z"/></g><path d="m507.821 434.245c-10.508-5.932-21.365-11.563-32.27-16.738l-6.859 14.455c5.752 2.729 11.49 5.59 17.167 8.558-10.344 4.837-20.499 10.024-30.336 15.497-3.211 1.787-4.792 5.531-3.833 9.079 2.129 7.874 4.049 15.82 5.743 23.763-27.875-14.346-57.164-25.659-87.419-33.766 18.35-9.756 37.715-18.214 57.791-25.231v-.001c.239-.083.475-.178.707-.285 1.927-.888 3.423-2.505 4.158-4.495l2.749-7.443c5.869 2.277 11.717 4.673 17.456 7.154l6.35-14.686c-6.003-2.595-12.122-5.102-18.262-7.48l19.421-52.593c1.53-4.145-.589-8.745-4.733-10.275-53.869-19.898-110.289-31.603-167.69-34.786-57.169-3.173-114.322 2.16-169.872 15.846l3.827 15.535c54.008-13.306 109.575-18.491 165.158-15.405 53.142 2.947 105.418 13.406 155.511 31.101l-22.174 60.046c-106.341-37.338-222.476-37.338-328.817 0l-22.173-60.045c12.089-4.269 24.409-8.149 36.72-11.565l-4.277-15.418c-15.303 4.246-30.615 9.189-45.511 14.692-4.144 1.53-6.263 6.131-4.732 10.275l19.421 52.594c-22.951 8.891-45.413 19.511-66.86 31.618-2.65 1.496-4.222 4.366-4.055 7.405.167 3.038 2.043 5.72 4.841 6.916 13.059 5.588 25.913 11.783 38.294 18.454-3.021 11.8-5.585 23.721-7.639 35.521-.53 3.046.742 6.125 3.268 7.908 1.377.972 2.993 1.464 4.614 1.464 1.352 0 2.708-.342 3.932-1.033 36.869-20.813 76.476-35.937 117.772-44.977.015-.003.031-.006.046-.009 2.697-.591 5.444-1.163 8.164-1.703 3.457-.686 6.058-3.552 6.404-7.059 1.71-17.28 4.036-34.754 6.924-52.031 45.919-6.683 92.591-6.683 138.51 0 2.889 17.283 5.215 34.758 6.924 52.03.347 3.508 2.948 6.375 6.404 7.061 1.823.362 10.485 2.214 11.642 2.479 40.056 9.117 78.525 23.991 114.341 44.21 1.225.691 2.58 1.033 3.932 1.033 1.621 0 3.236-.492 4.614-1.464 2.525-1.783 3.799-4.862 3.269-7.908-2.054-11.797-4.618-23.718-7.64-35.521 12.382-6.671 25.236-12.866 38.295-18.454 2.798-1.196 4.674-3.878 4.841-6.916.163-3.041-1.408-5.911-4.058-7.407zm-453.254 54.613c1.695-7.943 3.615-15.891 5.744-23.763.959-3.547-.622-7.292-3.833-9.079-9.835-5.472-19.992-10.66-30.335-15.497 16.373-8.555 33.265-16.217 50.44-22.88l2.748 7.442c.735 1.99 2.231 3.607 4.158 4.495.248.114.5.215.756.302 20.059 7.014 39.406 15.465 57.74 25.213-30.256 8.106-59.528 19.411-87.418 33.767zm109.969-39.49c-17.158-10.069-35.288-19.006-54.139-26.695 19.629-6.244 39.569-11.193 59.689-14.847-2.212 13.812-4.071 27.724-5.55 41.542zm182.928 0c-1.478-13.815-3.337-27.726-5.55-41.542 20.121 3.654 40.06 8.604 59.69 14.847-18.851 7.689-36.982 16.626-54.14 26.695z"/></g></g></g></svg>