<?xml version="1.0" standalone="no"?>
<!DOCTYPE svg PUBLIC "-//W3C//DTD SVG 20010904//EN"
 "http://www.w3.org/TR/2001/REC-SVG-20010904/DTD/svg10.dtd">
<svg version="1.0" xmlns="http://www.w3.org/2000/svg"
 width="512.000000pt" height="512.000000pt" viewBox="0 0 512.000000 512.000000"
 preserveAspectRatio="xMidYMid meet">

<g transform="translate(0.000000,512.000000) scale(0.100000,-0.100000)"
fill="#000000" stroke="none">
<path d="M2075 4987 c-209 -73 -398 -143 -420 -154 -60 -31 -126 -94 -162
-154 -53 -90 -63 -147 -63 -380 0 -211 5 -246 40 -284 10 -11 21 -31 24 -45 5
-21 0 -29 -38 -52 -56 -33 -102 -96 -122 -167 -51 -174 78 -355 263 -366 l58
-4 7 -107 c6 -91 19 -157 54 -281 5 -18 1 -22 -28 -28 -18 -4 -67 -20 -109
-36 -320 -122 -539 -441 -539 -783 l0 -102 -90 -12 c-125 -17 -244 -56 -269
-89 -27 -33 -26 -53 0 -88 19 -23 27 -26 63 -22 23 3 73 15 111 27 59 20 94
23 225 24 133 1 166 -2 233 -22 156 -45 301 -134 408 -250 107 -116 184 -267
215 -422 25 -128 16 -295 -25 -420 -115 -352 -416 -587 -781 -607 -510 -28
-934 397 -907 907 12 213 87 388 240 558 34 38 47 60 47 82 0 40 -31 70 -74
70 -29 0 -43 -10 -93 -63 -373 -399 -361 -1020 26 -1408 441 -440 1161 -386
1533 115 70 94 130 216 161 326 l22 80 493 0 492 0 0 -75 c0 -67 3 -79 25
-100 13 -14 36 -25 50 -25 14 0 37 11 50 25 24 23 25 30 25 148 0 111 -2 127
-21 151 l-20 26 -538 0 -538 0 -6 108 c-9 167 -63 341 -148 472 -21 33 -39 63
-39 65 0 3 353 5 785 5 l785 0 0 -619 0 -620 26 -20 c33 -26 65 -27 95 -2 l24
19 3 646 2 646 26 37 c25 37 25 41 22 183 -3 132 -5 148 -26 177 -22 31 -22
34 -20 337 l3 305 50 -39 c109 -86 200 -227 235 -366 19 -73 20 -113 20 -665
0 -390 -3 -590 -10 -594 -18 -11 -69 -122 -85 -182 -33 -125 -13 -217 56 -256
37 -21 39 -25 39 -69 0 -42 -3 -48 -20 -48 -29 0 -70 -44 -70 -75 0 -35 42
-75 77 -75 43 0 115 41 140 79 20 29 23 47 23 128 l0 95 62 64 c33 35 66 64
72 64 14 0 176 -162 176 -175 0 -6 -34 -44 -76 -85 -94 -93 -108 -118 -102
-182 12 -119 109 -162 276 -123 99 23 179 70 258 149 186 187 211 463 62 686
-22 34 -60 77 -84 98 l-44 36 0 324 c0 209 -4 330 -11 343 -25 48 -105 44
-128 -7 -7 -15 -11 -88 -11 -189 l0 -165 -100 0 -100 0 2 458 3 457 98 3 97 3
0 -134 c0 -121 2 -137 21 -161 26 -33 79 -36 109 -6 19 19 20 33 20 272 l0
253 74 38 c139 71 248 215 281 372 19 90 19 116 -1 165 -26 66 -89 99 -161 85
-29 -5 -58 -27 -131 -98 l-93 -91 -92 92 -92 92 87 87 c48 49 92 102 98 118
31 83 -33 187 -124 200 -61 10 -185 -17 -266 -57 -85 -41 -196 -151 -239 -235
-90 -180 -77 -385 36 -556 25 -37 63 -82 84 -99 l39 -31 0 -731 0 -731 -43
-17 c-23 -10 -45 -18 -49 -18 -4 0 -8 244 -10 542 l-3 543 -33 95 c-58 166
-149 298 -279 401 -83 66 -205 129 -301 155 -56 16 -63 20 -57 38 33 112 47
188 53 279 l7 108 58 4 c107 6 195 66 249 168 34 64 32 184 -4 253 -27 52 -81
107 -125 127 -29 13 -25 45 12 89 34 40 37 67 33 313 -4 251 -14 292 -92 388
-74 92 -118 114 -531 258 l-380 134 -120 2 -120 3 -380 -133z m945 -146 c206
-73 392 -143 413 -157 43 -28 93 -100 107 -156 6 -20 9 -123 8 -230 l-3 -193
-980 0 -980 0 -3 193 c-1 107 2 210 8 230 14 55 61 123 106 154 32 22 314 125
764 279 101 35 142 26 560 -120z m450 -900 c0 -30 -45 -145 -66 -171 -48 -57
-75 -65 -236 -70 -135 -5 -149 -7 -169 -27 -27 -26 -28 -77 -3 -104 17 -18 30
-20 176 -17 l158 3 0 -55 c-1 -117 -20 -321 -35 -381 -23 -91 -87 -215 -150
-291 -219 -266 -606 -349 -911 -195 -181 91 -311 237 -377 422 -31 87 -44 178
-53 360 l-6 140 469 -3 c461 -2 470 -2 488 18 25 28 23 76 -4 103 -21 22 -25
22 -479 27 -504 6 -490 4 -546 70 -20 25 -66 144 -66 174 0 3 407 6 905 6 526
0 905 -4 905 -9z m-1906 -192 c10 -22 31 -55 47 -73 36 -41 51 -129 24 -140
-29 -11 -97 14 -126 46 -47 50 -50 120 -8 180 28 38 42 35 63 -13z m2065 13
c60 -85 23 -195 -76 -221 -64 -17 -76 -8 -67 53 5 37 16 61 40 90 18 21 38 54
44 72 14 41 32 43 59 6z m803 -306 c-97 -101 -111 -129 -97 -203 5 -31 29 -60
128 -160 100 -99 129 -123 160 -128 73 -14 103 0 198 92 l90 87 -7 -45 c-9
-65 -56 -161 -105 -214 -49 -53 -101 -85 -176 -110 -71 -23 -83 -42 -83 -137
l0 -78 -100 0 -100 0 0 113 0 112 -75 68 c-56 51 -82 83 -105 133 -108 225 19
489 265 550 106 26 106 22 7 -80z m-2589 -688 c25 -35 64 -81 86 -103 l41 -39
0 -238 0 -238 -160 0 -160 0 0 324 0 323 53 16 c85 25 90 24 140 -45z m1600
42 l37 -11 0 -324 0 -325 -160 0 -160 0 0 236 0 236 60 65 c34 35 73 83 87
105 29 43 39 45 136 18z m-1963 -731 c-12 -16 -24 -45 -27 -64 -6 -40 -6 -40
-64 -20 -24 9 -78 22 -119 29 l-75 12 -3 90 c-7 210 87 417 251 552 l52 42 3
-306 c2 -295 2 -306 -18 -335z m816 368 c213 -67 474 -48 667 49 l47 24 0
-199 c0 -168 -2 -201 -16 -212 -41 -34 -54 -84 -54 -209 l0 -120 -374 0 -374
0 -4 134 -3 134 -32 40 -33 41 0 196 0 195 48 -24 c26 -13 83 -35 128 -49z
m-546 -487 c0 -43 34 -90 64 -90 49 0 86 43 86 100 l0 30 70 0 71 0 -3 -107
-3 -108 -133 -3 -133 -3 -42 34 c-23 19 -61 47 -84 62 -41 26 -43 30 -43 76
l0 49 75 0 75 0 0 -40z m1480 10 c0 -41 18 -76 47 -89 34 -16 47 -14 77 10 21
17 26 29 26 65 l0 44 75 0 76 0 -3 -107 -3 -108 -215 0 -215 0 -3 108 -3 107
71 0 70 0 0 -30z m1310 -741 c0 -109 0 -111 29 -137 143 -133 170 -174 190
-287 38 -211 -122 -427 -335 -451 l-59 -7 86 89 c98 101 116 140 98 209 -15
57 -226 268 -284 284 -68 18 -108 0 -204 -92 l-84 -82 7 49 c18 143 154 291
293 321 49 10 63 37 63 126 0 41 3 79 7 82 3 4 48 7 100 7 l93 0 0 -111z"/>
<path d="M2485 4777 c-140 -47 -219 -152 -219 -292 0 -83 23 -142 79 -203 113
-126 315 -130 433 -9 118 120 117 309 -1 425 -76 75 -202 109 -292 79z m138
-151 c108 -45 127 -185 34 -260 -32 -25 -47 -30 -90 -30 -67 0 -112 29 -139
91 -28 62 -17 114 32 163 50 50 103 62 163 36z"/>
<path d="M2137 3458 c-56 -44 -27 -138 42 -138 35 0 71 39 71 75 0 60 -68 97
-113 63z"/>
<path d="M2902 3447 c-31 -33 -29 -80 4 -106 43 -34 86 -26 110 20 39 76 -56
148 -114 86z"/>
<path d="M1905 3325 c-26 -25 -31 -54 -15 -84 13 -25 162 -121 187 -121 31 0
73 38 73 66 0 42 -18 63 -97 115 -85 55 -113 60 -148 24z"/>
<path d="M2296 3131 c-56 -62 29 -208 153 -264 63 -28 169 -29 232 0 166 75
240 292 95 281 -38 -3 -43 -7 -71 -58 -36 -66 -103 -106 -158 -96 -50 10 -96
43 -114 83 -10 21 -24 46 -32 56 -20 24 -83 23 -105 -2z"/>
<path d="M2961 3014 c-28 -31 -54 -67 -57 -81 -14 -53 37 -101 92 -87 36 9
124 119 124 155 0 39 -32 69 -74 69 -29 0 -42 -9 -85 -56z"/>
<path d="M365 4301 c-86 -39 -105 -87 -105 -263 0 -141 13 -191 56 -230 31
-27 89 -48 134 -48 l40 0 0 -70 c0 -66 -2 -71 -24 -80 -47 -18 -61 -80 -26
-118 12 -12 27 -22 35 -22 12 0 15 -15 15 -64 0 -56 -3 -66 -20 -71 -57 -18
-65 -97 -13 -130 31 -19 32 -23 33 -82 0 -46 -4 -63 -13 -63 -23 0 -57 -45
-57 -74 0 -27 39 -76 60 -76 6 0 10 -26 10 -63 0 -60 -1 -63 -30 -74 -53 -20
-53 -106 0 -126 27 -10 30 -15 30 -59 0 -81 39 -145 107 -174 51 -22 205 -19
253 6 68 35 84 70 88 188 3 72 7 102 16 102 26 0 56 41 56 75 0 35 -30 75 -57
75 -9 0 -13 17 -13 60 0 56 2 60 30 75 53 27 54 98 3 130 -30 19 -32 24 -33
78 0 46 4 59 18 64 35 12 52 36 52 73 0 37 -17 61 -52 73 -14 5 -18 18 -18 64
1 54 3 59 33 78 51 32 50 103 -3 130 -23 12 -30 22 -30 45 0 29 2 30 47 30 67
0 128 32 158 84 24 41 25 51 25 197 0 141 -2 157 -23 193 -14 25 -39 48 -66
63 -44 23 -49 23 -360 23 -285 0 -320 -2 -356 -19z m650 -261 l0 -125 -300 0
-300 0 -3 114 c-1 63 0 121 2 128 4 11 63 13 303 11 l298 -3 0 -125z m-227
-327 l-3 -48 -45 -7 c-25 -4 -57 -9 -72 -12 l-28 -5 0 59 0 60 76 0 75 0 -3
-47z m2 -262 c0 -66 3 -64 -97 -77 l-53 -7 0 61 0 61 38 6 c20 4 42 8 47 10 6
2 22 4 38 4 26 1 27 0 27 -58z m0 -275 l0 -63 -42 -7 c-24 -4 -58 -9 -76 -12
l-33 -6 3 63 3 64 65 11 c36 6 68 12 73 13 4 0 7 -28 7 -63z m-2 -278 l-3 -63
-45 -7 c-25 -4 -57 -9 -72 -12 l-28 -5 0 63 0 63 63 10 c34 6 68 11 75 12 10
1 12 -15 10 -61z m2 -283 l0 -66 -72 3 -73 3 -3 52 -3 51 53 10 c102 19 98 21
98 -53z"/>
<path d="M998 1620 c-238 -40 -433 -216 -493 -445 -19 -76 -19 -224 0 -299 53
-202 229 -378 431 -430 79 -20 222 -21 299 -1 259 68 445 305 448 570 2 107
-13 175 -59 270 -112 236 -376 377 -626 335z m242 -173 c199 -73 324 -285 290
-490 -26 -148 -123 -276 -260 -341 -61 -29 -73 -31 -180 -31 -96 0 -124 4
-170 22 -111 46 -207 142 -253 253 -18 46 -22 74 -22 170 0 109 2 119 32 183
100 212 347 314 563 234z"/>
<path d="M1054 1299 c-22 -11 -44 -48 -44 -73 0 -7 9 -25 21 -40 40 -51 129
-20 129 46 0 52 -60 89 -106 67z"/>
<path d="M830 1080 c-30 -30 -27 -83 6 -109 31 -24 43 -26 78 -10 34 16 47 57
31 96 -20 47 -79 59 -115 23z"/>
<path d="M1242 1077 c-31 -33 -29 -80 4 -106 43 -34 86 -26 110 20 39 76 -56
148 -114 86z"/>
<path d="M1064 889 c-25 -9 -54 -46 -54 -70 0 -33 39 -69 76 -69 59 0 92 57
64 110 -13 23 -59 39 -86 29z"/>
</g>
</svg>
