<?xml version="1.0" standalone="no"?>
<!DOCTYPE svg PUBLIC "-//W3C//DTD SVG 20010904//EN"
 "http://www.w3.org/TR/2001/REC-SVG-20010904/DTD/svg10.dtd">
<svg version="1.0" xmlns="http://www.w3.org/2000/svg"
 width="512.000000pt" height="512.000000pt" viewBox="0 0 512.000000 512.000000"
 preserveAspectRatio="xMidYMid meet">

<g transform="translate(0.000000,512.000000) scale(0.100000,-0.100000)"
fill="#000000" stroke="none">
<path d="M530 4913 c-14 -3 -53 -18 -88 -33 -83 -38 -163 -119 -205 -207 l-32
-68 0 -2045 0 -2045 32 -68 c42 -89 122 -168 210 -210 l68 -32 965 0 965 0 68
32 c88 42 164 118 208 208 l34 70 3 833 3 832 1045 0 1046 0 34 34 34 34 0
942 0 942 -34 34 -34 34 -1045 0 -1045 0 -4 203 -4 202 -31 68 c-42 88 -121
168 -210 210 l-68 32 -945 1 c-520 1 -956 -1 -970 -3z m1863 -224 c21 -6 56
-26 77 -45 59 -53 70 -99 70 -286 l0 -158 -776 0 -776 0 -34 -34 -34 -34 0
-942 0 -942 34 -34 34 -34 281 0 281 0 0 -281 0 -281 34 -34 c28 -28 41 -34
77 -34 l43 0 316 315 315 315 103 0 102 0 0 -520 0 -520 -1060 0 -1060 0 0
1688 c0 1173 3 1699 11 1726 14 50 73 113 124 131 33 12 188 14 920 15 591 0
893 -4 918 -11z m2307 -1499 l0 -790 -1227 0 -1227 0 -231 -230 c-127 -126
-234 -230 -238 -230 -4 0 -7 88 -7 196 l0 196 -34 34 -34 34 -281 0 -281 0 0
790 0 790 1780 0 1780 0 0 -790z m-2160 -2426 c0 -95 -5 -173 -12 -198 -16
-53 -81 -118 -134 -134 -31 -9 -253 -12 -916 -12 -979 0 -936 -3 -1002 70 -48
53 -56 92 -56 273 l0 157 1060 0 1060 0 0 -156z"/>
<path d="M1194 4541 c-20 -12 -37 -34 -44 -55 -16 -49 2 -101 44 -127 28 -17
52 -19 286 -19 234 0 258 2 286 19 66 40 66 142 0 182 -28 17 -52 19 -286 19
-234 0 -258 -2 -286 -19z"/>
<path d="M1764 3626 l-34 -34 0 -101 c0 -56 -2 -101 -5 -101 -3 0 -41 20 -84
45 -85 49 -125 56 -171 28 -54 -32 -67 -111 -26 -160 13 -15 56 -46 95 -68 39
-22 71 -42 71 -45 0 -3 -37 -25 -81 -50 -85 -47 -109 -76 -109 -129 0 -43 17
-75 50 -94 46 -28 86 -21 171 28 43 25 81 45 84 45 3 0 5 -45 5 -101 l0 -101
34 -34 c28 -28 42 -34 76 -34 34 0 48 6 76 34 l34 34 0 101 c0 56 3 101 8 101
4 0 41 -20 82 -45 82 -49 123 -56 170 -28 56 32 67 111 24 162 -14 17 -57 48
-95 68 -38 21 -69 40 -69 43 0 3 31 22 69 43 38 20 81 51 95 68 43 51 32 130
-24 162 -46 28 -86 21 -171 -28 -43 -25 -81 -45 -84 -45 -3 0 -5 45 -5 101 l0
101 -34 34 c-28 28 -42 34 -76 34 -34 0 -48 -6 -76 -34z"/>
<path d="M2844 3626 l-34 -34 0 -101 c0 -56 -2 -101 -5 -101 -3 0 -41 20 -84
45 -85 49 -125 56 -171 28 -54 -32 -67 -111 -26 -160 13 -15 56 -46 95 -68 39
-22 71 -42 71 -45 0 -3 -37 -25 -81 -50 -85 -47 -109 -76 -109 -129 0 -43 17
-75 50 -94 46 -28 86 -21 171 28 43 25 81 45 84 45 3 0 5 -45 5 -101 l0 -101
34 -34 c28 -28 42 -34 76 -34 34 0 48 6 76 34 l34 34 0 101 c0 56 3 101 8 101
4 0 41 -20 82 -45 82 -49 123 -56 170 -28 56 32 67 111 24 162 -14 17 -57 48
-95 68 -38 21 -69 40 -69 43 0 3 31 22 69 43 38 20 81 51 95 68 43 51 32 130
-24 162 -46 28 -86 21 -171 -28 -43 -25 -81 -45 -84 -45 -3 0 -5 45 -5 101 l0
101 -34 34 c-28 28 -42 34 -76 34 -34 0 -48 -6 -76 -34z"/>
<path d="M3924 3626 l-34 -34 0 -101 c0 -56 -2 -101 -5 -101 -3 0 -41 20 -84
45 -85 49 -125 56 -171 28 -54 -32 -67 -111 -26 -160 13 -15 56 -46 95 -68 39
-22 71 -42 71 -45 0 -3 -32 -23 -71 -45 -39 -22 -82 -53 -95 -68 -41 -49 -28
-128 26 -160 46 -28 86 -21 171 28 43 25 81 45 84 45 3 0 5 -45 5 -101 l0
-101 34 -34 c28 -28 42 -34 76 -34 34 0 48 6 76 34 l34 34 0 101 c0 56 3 101
8 101 4 0 41 -20 82 -45 82 -49 123 -56 170 -28 56 32 67 111 24 162 -14 17
-57 48 -95 68 -38 21 -69 40 -69 43 0 3 31 22 69 43 85 46 121 86 121 133 0
70 -43 114 -112 114 -19 0 -62 -18 -109 -45 -43 -25 -81 -45 -84 -45 -3 0 -5
45 -5 101 l0 101 -34 34 c-28 28 -42 34 -76 34 -34 0 -48 -6 -76 -34z"/>
<path d="M1194 761 c-42 -26 -60 -78 -44 -127 7 -21 24 -43 44 -55 28 -17 52
-19 286 -19 234 0 258 2 286 19 66 40 66 142 0 182 -28 17 -52 19 -286 19
-234 0 -258 -2 -286 -19z"/>
</g>
</svg>
