<?xml version="1.0"?>
<svg xmlns="http://www.w3.org/2000/svg" viewBox="0 0 512 512" width="512" height="512"><g id="Outline"><path d="M447.928,274.16,384,265.042v-14.6A72.919,72.919,0,0,0,411.831,209.5a134.219,134.219,0,0,0,3.931-25.5H416a32,32,0,0,0,8.712-62.785A31.864,31.864,0,0,0,424,102.606V72a56,56,0,0,0-56-56H304a56,56,0,0,0-56,56v30.606a31.864,31.864,0,0,0-.712,18.609A32,32,0,0,0,256,184h.238a133.907,133.907,0,0,0,3.916,25.442A71.2,71.2,0,0,0,288,250.41v15.1l-79.991,17.15A72.271,72.271,0,0,0,176,298.671V288a23.941,23.941,0,0,0-8-17.869V240a8,8,0,0,0-8-8H144V214.938A16.079,16.079,0,0,0,130.263,199.1L32,185.062V144H48v24a8,8,0,0,0,8,8h89.376A24,24,0,0,0,176,190.629V200a24,24,0,0,0,48,0V104a8,8,0,0,0-8-8H56a8,8,0,0,0-8,8v24H32a16.019,16.019,0,0,0-16,16v41.062A16.079,16.079,0,0,0,29.737,200.9L128,214.938V232H112a8,8,0,0,0-8,8v24a24.027,24.027,0,0,0-24,24V452.72a43.157,43.157,0,0,0,41.231,43.192q1.022.046,2.036.046a43.289,43.289,0,0,0,32.667-14.842q.183-.21.353-.432l60.556-79.6L235.962,376H240V496h16V376H416V496h16V400h48v96h16V329.6A56.386,56.386,0,0,0,447.928,274.16ZM64,112H208v88a8,8,0,0,1-16,0V168a8,8,0,0,0-16,0,8,8,0,0,1-16,0V128H144v32H64ZM330,264h12a71.567,71.567,0,0,0,26-4.869V272a32,32,0,0,1-64,0V259.131A71.567,71.567,0,0,0,330,264Zm6,56a47.989,47.989,0,0,0,40-21.507V360H296V298.493A47.989,47.989,0,0,0,336,320Zm32.879-194.63a199.572,199.572,0,0,0-65.758,0l-21.941,3.656A16.277,16.277,0,0,1,262.275,112h147.45a16.277,16.277,0,0,1-18.905,17.026ZM432,152a16.037,16.037,0,0,1-16,16V136.1c.032-.032.066-.061.1-.092A16.015,16.015,0,0,1,432,152ZM264,72a40,40,0,0,1,40-40h64a40,40,0,0,1,40,40V96H264Zm-19.3,91.3A15.982,15.982,0,0,1,255.92,136l.08.082V168A16.1,16.1,0,0,1,244.7,163.3Zm30.973,42.234A119.266,119.266,0,0,1,272,176V144.617c6.167,2.383,16.7-.624,16.7-.624a12,12,0,1,0,20.712-3.413,183.537,183.537,0,0,1,53.172,0,12.006,12.006,0,1,0,20.712,3.413c5.574.929,10.95,1.778,16.6.65.606,10.4.105,20.942.105,31.357a119.292,119.292,0,0,1-3.676,29.559C390.072,230,367.505,248,342,248H330a56.183,56.183,0,0,1-54.33-42.463ZM120,360h32v16H120Zm0-112h32v16H120ZM96,288a8.009,8.009,0,0,1,8-8h48a8.009,8.009,0,0,1,8,8v48a8.009,8.009,0,0,1-8,8H104a8.009,8.009,0,0,1-8-8Zm0,164.72v-94.1A23.885,23.885,0,0,0,104,360v24a8,8,0,0,0,8,8h32v64a23.9,23.9,0,0,1-22.439,23.9,26.765,26.765,0,0,1-17.584-7.882A27.11,27.11,0,0,1,96,452.72Zm64-3.342V392a8,8,0,0,0,8-8V368.177l31.692,29.031ZM232,360a8,8,0,0,0-6.363,3.151l-16.212,21.274-37.8-34.629A23.863,23.863,0,0,0,176,336V322.756l.286-.443a56.379,56.379,0,0,1,35.06-24.008L240,292.2V360Zm24,0V288.776l24-5.166V360Zm136,0V282.367l24,3.428V360Zm88,24H432V288.054L445.646,290A40.292,40.292,0,0,1,480,329.6Z"/><rect x="272" y="392" width="16" height="16"/><rect x="384" y="392" width="16" height="16"/><path d="M272,488a8,8,0,0,0,8,8H392a8,8,0,0,0,8-8V432a8,8,0,0,0-8-8H280a8,8,0,0,0-8,8Zm16-48h96v40H288Z"/><path d="M364,190.93l-7.992-13.86A53.318,53.318,0,0,1,329.373,184H320v16h9.373A69.328,69.328,0,0,0,364,190.93Z"/></g></svg>
