<?xml version="1.0" standalone="no"?>
<!DOCTYPE svg PUBLIC "-//W3C//DTD SVG 20010904//EN"
 "http://www.w3.org/TR/2001/REC-SVG-20010904/DTD/svg10.dtd">
<svg version="1.0" xmlns="http://www.w3.org/2000/svg"
 width="512.000000pt" height="512.000000pt" viewBox="0 0 512.000000 512.000000"
 preserveAspectRatio="xMidYMid meet">

<g transform="translate(0.000000,512.000000) scale(0.100000,-0.100000)"
fill="#000000" stroke="none">
<path d="M430 5107 c-31 -16 -50 -52 -50 -97 0 -19 -10 -55 -21 -80 -39 -88
-102 -132 -210 -149 -76 -13 -101 -34 -101 -86 0 -55 30 -81 101 -89 124 -14
211 -99 230 -226 12 -74 42 -110 91 -110 49 0 76 35 89 115 19 124 90 195 221
219 53 10 80 21 92 36 18 22 23 65 12 95 -9 22 -57 45 -96 45 -42 0 -125 39
-161 76 -39 39 -56 74 -68 142 -15 85 -18 91 -49 107 -35 18 -48 18 -80 2z
m82 -374 l38 -37 -42 -43 -41 -42 -40 41 -39 40 38 39 c21 21 40 39 43 39 3 0
22 -17 43 -37z"/>
<path d="M1396 5104 c-98 -31 -168 -93 -213 -189 l-28 -60 -3 -252 c-3 -198
-6 -253 -16 -253 -8 0 -25 -9 -40 -21 -24 -19 -26 -26 -26 -103 0 -73 3 -85
23 -104 13 -12 31 -22 40 -22 13 0 17 -9 17 -45 0 -31 -4 -45 -14 -45 -7 0
-25 -9 -40 -21 -24 -19 -26 -26 -26 -105 0 -71 3 -87 20 -104 11 -11 29 -20
40 -20 17 0 20 -7 20 -45 0 -39 -3 -45 -25 -51 -41 -10 -55 -40 -55 -122 0
-85 9 -106 50 -120 l30 -11 2 -1573 3 -1573 28 -60 c46 -99 117 -160 219 -190
49 -14 182 -15 1224 -13 l1169 3 55 26 c70 33 136 99 169 169 l26 55 0 2305 0
2305 -26 55 c-33 70 -99 136 -169 169 l-55 26 -1175 2 c-1023 2 -1181 0 -1224
-13z m2371 -165 c38 -14 83 -57 99 -96 9 -20 14 -70 14 -133 l0 -100 -1280 0
-1280 0 0 98 c0 73 5 107 19 138 19 42 70 88 106 97 43 10 2294 7 2322 -4z
m113 -2294 l0 -1795 -1277 2 -1278 3 -3 1793 -2 1792 1280 0 1280 0 0 -1795z
m-1544 -2009 c-98 -129 -96 -299 5 -427 l31 -40 -469 3 -470 3 -37 29 c-67 50
-76 85 -76 294 l0 182 525 0 525 0 -34 -44z m1544 -141 c0 -203 -5 -229 -56
-277 -16 -15 -42 -32 -57 -37 -19 -7 -186 -11 -484 -11 l-455 0 29 34 c58 66
78 122 78 221 0 77 -4 98 -26 145 -15 30 -39 67 -53 83 l-27 27 526 0 525 0 0
-185z m-1237 94 c190 -52 154 -329 -43 -329 -117 0 -197 116 -156 224 20 52
51 83 103 101 47 17 49 17 96 4z"/>
<path d="M2115 4835 c-54 -53 -17 -130 67 -141 102 -14 158 17 158 86 0 64
-23 80 -120 80 -73 0 -83 -3 -105 -25z"/>
<path d="M2459 4841 c-32 -26 -33 -92 -1 -123 22 -23 27 -23 271 -23 228 0
251 2 269 19 12 10 24 31 27 46 7 32 -15 84 -40 94 -9 3 -126 6 -260 6 -223 0
-245 -2 -266 -19z"/>
<path d="M1714 3146 c-36 -16 -58 -64 -44 -99 4 -12 36 -49 69 -82 l61 -59
-59 -61 c-85 -86 -95 -120 -48 -172 14 -16 32 -23 55 -23 28 0 45 11 103 67
l70 67 67 -67 c58 -57 73 -67 103 -67 46 0 79 33 79 80 0 29 -11 45 -67 102
l-67 67 67 70 c56 58 67 75 67 103 0 35 -26 68 -63 81 -29 11 -78 -17 -137
-77 l-54 -56 -66 64 c-74 72 -92 81 -136 62z"/>
<path d="M2410 3153 c-35 -13 -60 -47 -60 -81 0 -28 11 -45 67 -103 l67 -70
-67 -67 c-57 -58 -67 -73 -67 -103 0 -46 33 -79 80 -79 29 0 45 11 102 67 l67
67 70 -67 c58 -56 75 -67 103 -67 23 0 41 7 55 23 47 52 37 86 -48 172 l-59
61 61 59 c74 73 84 94 65 139 -16 38 -63 61 -99 46 -12 -4 -49 -36 -81 -69
l-60 -61 -67 65 c-37 36 -72 65 -77 65 -6 0 -16 2 -24 4 -7 3 -20 2 -28 -1z"/>
<path d="M3084 3150 c-30 -12 -54 -49 -54 -82 0 -20 18 -46 66 -98 l67 -70
-67 -69 c-53 -55 -66 -75 -66 -100 0 -44 38 -81 84 -81 30 0 46 10 103 64 l68
64 67 -64 c51 -50 73 -64 96 -64 44 0 61 9 77 41 26 48 18 67 -52 140 l-67 70
56 57 c85 87 96 120 54 168 -18 21 -32 28 -60 28 -32 0 -45 -9 -104 -67 l-68
-67 -54 56 c-44 45 -106 87 -122 83 -2 0 -13 -4 -24 -9z"/>
<path d="M1697 2370 c-30 -24 -40 -60 -27 -96 22 -56 -25 -53 933 -54 l888 0
24 25 c40 39 28 111 -22 134 -17 8 -278 11 -897 11 -856 0 -874 0 -899 -20z"/>
<path d="M4598 3909 c-20 -11 -38 -68 -38 -121 l0 -38 -56 0 c-67 0 -89 -10
-102 -50 -24 -68 27 -120 118 -120 38 0 40 -1 40 -32 0 -67 19 -109 56 -124
29 -12 39 -12 68 0 37 15 56 57 56 124 0 31 2 32 39 32 50 0 99 18 111 40 17
32 12 88 -10 110 -16 16 -33 20 -80 20 l-60 0 0 38 c0 55 -18 110 -40 122 -24
13 -80 12 -102 -1z"/>
<path d="M181 2979 c-34 -14 -50 -39 -51 -80 0 -45 33 -79 79 -79 46 0 68 15
80 53 24 72 -38 133 -108 106z"/>
<path d="M4335 2105 c-17 -16 -25 -35 -25 -57 1 -90 119 -116 158 -35 40 84
-68 158 -133 92z"/>
<path d="M585 1427 c-57 -49 -20 -147 56 -147 72 0 109 105 53 149 -35 27 -76
27 -109 -2z"/>
<path d="M4936 319 c-32 -25 -36 -85 -8 -118 47 -59 144 -23 144 53 0 75 -76
112 -136 65z"/>
</g>
</svg>
