<?xml version="1.0" standalone="no"?>
<!DOCTYPE svg PUBLIC "-//W3C//DTD SVG 20010904//EN"
 "http://www.w3.org/TR/2001/REC-SVG-20010904/DTD/svg10.dtd">
<svg version="1.0" xmlns="http://www.w3.org/2000/svg"
 width="512.000000pt" height="512.000000pt" viewBox="0 0 512.000000 512.000000"
 preserveAspectRatio="xMidYMid meet">

<g transform="translate(0.000000,512.000000) scale(0.100000,-0.100000)"
fill="#000000" stroke="none">
<path d="M3169 4665 c-14 -8 -35 -27 -45 -42 -17 -25 -19 -52 -22 -286 -3
-245 -2 -260 18 -302 21 -44 66 -75 109 -75 19 0 21 -6 21 -60 l0 -60 -68 0
c-123 0 -300 -59 -417 -140 -25 -17 -90 -73 -144 -124 -74 -69 -121 -103 -183
-134 -156 -78 -130 -76 -804 -80 l-601 -3 -6 72 c-13 158 -121 292 -274 339
l-58 18 -3 123 c-1 69 -7 128 -14 136 -13 16 -60 17 -76 1 -8 -8 -12 -54 -12
-140 0 -128 0 -128 -24 -128 -13 0 -55 -16 -93 -35 -115 -57 -189 -156 -212
-280 -15 -80 -15 -1259 0 -1340 6 -32 20 -78 31 -102 25 -53 96 -134 143 -163
34 -21 35 -24 35 -83 1 -82 26 -138 79 -173 l41 -27 0 -261 c0 -280 1 -286 50
-286 49 0 50 6 50 285 l0 262 37 24 c62 41 77 71 81 159 l4 78 48 31 c59 38
101 90 138 168 26 56 27 65 30 251 l4 193 901 -3 902 -3 50 -25 c64 -31 124
-92 156 -155 19 -41 24 -65 24 -130 0 -138 -43 -201 -244 -354 -214 -163 -274
-224 -320 -321 -25 -54 -26 -61 -29 -292 l-3 -238 -1122 0 c-911 -1 -1129 -3
-1160 -14 -55 -20 -103 -61 -134 -114 -27 -45 -28 -53 -31 -205 -3 -113 0
-162 8 -172 11 -13 293 -15 2184 -15 1676 0 2175 3 2184 12 8 8 12 59 12 163
0 143 -1 154 -26 203 -32 64 -83 107 -151 129 l-53 17 0 789 0 790 40 -55 c87
-122 274 -211 345 -164 l25 16 0 287 0 286 84 -6 c89 -6 127 -20 162 -59 50
-54 49 -47 51 -508 l3 -435 -32 -20 c-100 -62 -105 -206 -9 -271 74 -50 174
-25 229 56 20 29 23 44 20 88 -5 59 -27 96 -76 127 l-31 20 -1 436 c0 504 0
500 -84 585 -65 64 -120 84 -233 84 l-83 0 0 278 c0 324 2 316 -81 314 -116
-4 -258 -106 -336 -242 l-30 -52 -46 94 c-56 113 -115 189 -203 262 -129 106
-273 164 -439 174 l-100 7 0 55 c0 52 1 54 30 60 46 10 74 28 95 63 18 30 20
52 20 298 0 260 0 267 -23 300 -12 18 -34 39 -47 46 -36 18 -227 16 -261 -2z
m406 -950 c211 -59 392 -230 462 -438 l28 -82 3 -1118 2 -1117 -751 0 -751 0
4 218 c3 210 4 219 29 272 33 70 98 134 271 266 212 163 279 249 298 383 33
235 -127 446 -365 481 -43 6 -404 10 -922 10 l-853 0 0 335 0 335 596 0 c650
0 660 1 804 60 99 41 169 89 276 190 138 130 254 192 406 219 84 15 392 6 463
-14z m-2902 -487 c16 -12 17 -47 15 -438 l-3 -425 -27 -9 c-22 -8 -32 -6 -48
9 -19 18 -20 29 -20 428 0 368 2 412 17 429 19 21 42 23 66 6z m3557 -2393
c59 -35 75 -75 75 -190 l0 -100 -2090 0 -2090 0 0 100 c1 137 28 184 118 205
17 5 914 7 1992 7 1952 -2 1960 -2 1995 -22z"/>
<path d="M3220 3441 c-95 -31 -169 -94 -209 -180 -36 -77 -36 -192 -1 -266
116 -239 448 -247 575 -14 40 74 46 180 16 260 -46 123 -153 199 -284 205 -40
2 -83 0 -97 -5z"/>
</g>
</svg>
